<svg viewBox="0 0 1024 1024" xmlns="http://www.w3.org/2000/svg"><defs><style>.cls-1{fill:none;}.cls-2{fill:#ccdeff;}.cls-3{fill:#80adff;}.cls-4{fill:#101129;}.cls-5{fill:#81e6c1;}.cls-6{fill:#fff;}.cls-7{fill:#ffdc8a;}</style></defs><g id="图层_2"><g id="缺省页"><g id="暂无消息"><rect height="1024" width="1024" class="cls-1"></rect><path d="M427.31,766.68l6.35,25.74a8,8,0,0,0,5.85,5.85l25.74,6.34a2,2,0,0,1,0,3.89l-25.74,6.34a8,8,0,0,0-5.85,5.85l-6.35,25.75a2,2,0,0,1-3.88,0l-6.35-25.75a8,8,0,0,0-5.85-5.85l-25.74-6.34a2,2,0,0,1,0-3.89l25.74-6.34a8,8,0,0,0,5.85-5.85l6.35-25.74A2,2,0,0,1,427.31,766.68Z" class="cls-2"></path><path d="M539.62,161.94l-2,21.28a6.46,6.46,0,0,0,2.92,6l17.93,11.62a1.61,1.61,0,0,1-1,2.95l-21.28-1.94a6.46,6.46,0,0,0-6,2.91l-11.61,17.93a1.61,1.61,0,0,1-3-1l2-21.28a6.43,6.43,0,0,0-2.91-6l-17.93-11.62a1.61,1.61,0,0,1,1-3l21.27,2a6.47,6.47,0,0,0,6-2.92l11.62-17.93A1.61,1.61,0,0,1,539.62,161.94Z" class="cls-2"></path><path d="M862.36,832.69l16.13,18.46a7.39,7.39,0,0,0,7.29,2.32l23.84-5.7a1.85,1.85,0,0,1,1.64,3.19l-18.45,16.13a7.39,7.39,0,0,0-2.33,7.29l5.71,23.83a1.85,1.85,0,0,1-3.19,1.65l-16.13-18.45a7.4,7.4,0,0,0-7.29-2.33l-23.84,5.7a1.85,1.85,0,0,1-1.65-3.19l18.46-16.13a7.41,7.41,0,0,0,2.33-7.29l-5.71-23.83A1.85,1.85,0,0,1,862.36,832.69Z" class="cls-2"></path><circle r="24" cy="776" cx="728" class="cls-2"></circle><path d="M246.23,284.62c20.78,0,37.68-17.21,37.68-38.36a38.58,38.58,0,0,0-6.41-21.37,37,37,0,0,0-21-6.52c-.85,0-1.75,0-2.82.12a3.42,3.42,0,0,1-3.36-2,35.63,35.63,0,0,0-5.57-8.54l-1.35.08a3.4,3.4,0,0,1-3.36-2,34,34,0,0,0-2.68-4.77c-9.37-6.76-22.05-10.78-35.67-10.78-28.33,0-51.38,17.21-51.38,38.36a3.45,3.45,0,0,1-3.42,3.48c-20.78,0-37.68,14.08-37.68,31.39a27.08,27.08,0,0,0,4.06,14.15,42.5,42.5,0,0,0,23.34,6.77Z" class="cls-3"></path><path d="M246.23,292.11h-13.7a4,4,0,1,1,0-8h13.7c20.46,0,37.1-17,37.1-37.85s-16.64-37.84-37.1-37.84c-.83,0-1.71,0-2.77.11a4,4,0,0,1-3.94-2.32c-7-15.37-26.37-25.69-48.09-25.69-28,0-50.81,17-50.81,37.85a4,4,0,0,1-4,4c-20.46,0-37.1,13.84-37.1,30.87s16.64,30.87,37.1,30.87h68.51a4,4,0,0,1,0,8H136.62c-24.87,0-45.1-17.44-45.1-38.87,0-20.34,18.21-37.07,41.31-38.74,2.52-23.48,27.84-42,58.6-42,23.66,0,45,11.11,54.13,27.9h.67c24.87,0,45.1,20.56,45.1,45.84S271.1,292.11,246.23,292.11Z" class="cls-4"></path><path d="M896.82,252.92c15.59,0,28.26-14.79,28.26-33a36.82,36.82,0,0,0-4.8-18.38,25.42,25.42,0,0,0-15.75-5.6c-.64,0-1.31,0-2.12.1a2.52,2.52,0,0,1-2.51-1.72,31.73,31.73,0,0,0-4.18-7.34c-.32,0-.65,0-1,.07a2.54,2.54,0,0,1-2.52-1.72,31.77,31.77,0,0,0-2-4.1A42.13,42.13,0,0,0,863.42,172c-21.25,0-38.53,14.79-38.53,33a2.81,2.81,0,0,1-2.57,3c-15.59,0-28.26,12.1-28.26,27a25.88,25.88,0,0,0,3,12.17,29,29,0,0,0,17.51,5.82Z" class="cls-3"></path><path d="M896.82,259.91H886.55a4,4,0,1,1,0-8h10.27c14.8,0,26.83-14.34,26.83-32s-12-32-26.83-32c-.58,0-1.2,0-2,.09a4,4,0,0,1-4.06-2.5c-5.16-12.9-19.26-21.57-35.08-21.57-20.46,0-37.11,14.34-37.11,32a4,4,0,0,1-4,4c-14.79,0-26.83,11.65-26.83,26s12,26,26.83,26H866a4,4,0,0,1,0,8H814.61c-19.2,0-34.83-15.24-34.83-34,0-17.48,13.61-31.92,31-33.77C813,171.91,832.29,156,855.72,156c18,0,34.23,9.53,41.34,24,19.1.15,34.59,18,34.59,40S916,259.91,896.82,259.91Z" class="cls-4"></path><polygon points="512 704 576 704 576 896 512 704" class="cls-3"></polygon><path d="M576,900a4,4,0,0,1-3.79-2.74l-64-192A4,4,0,0,1,512,700h64a4,4,0,0,1,4,4V896a4,4,0,0,1-3.36,4A4.72,4.72,0,0,1,576,900ZM517.55,708,572,871.35V708Z" class="cls-4"></path><polygon points="640 704 576 704 576 896 640 704" class="cls-5"></polygon><path d="M576,900a4.72,4.72,0,0,1-.64,0,4,4,0,0,1-3.36-4V704a4,4,0,0,1,4-4h64a4,4,0,0,1,3.79,5.26l-64,192A4,4,0,0,1,576,900Zm4-192V871.35L634.45,708Z" class="cls-4"></path><path d="M312,336c-57.44,0-104,50.14-104,112V640H416V448C416,386.14,369.44,336,312,336Z" class="cls-6"></path><path d="M416,644H208a4,4,0,0,1-4-4V448c0-64,48.45-116,108-116s108,52,108,116V640A4,4,0,0,1,416,644Zm-204-8H412V448c0-59.55-44.86-108-100-108S212,388.45,212,448Z" class="cls-4"></path><path d="M720,336H312c57.44,0,104,50.14,104,112V640H848V483.69C848,402.12,790.69,336,720,336Z" class="cls-6"></path><path d="M848,644H416a4,4,0,0,1-4-4V448c0-59.55-44.86-108-100-108a4,4,0,0,1,0-8H720c72.79,0,132,68.05,132,151.69V640A4,4,0,0,1,848,644Zm-428-8H844V483.69C844,404.46,788.37,340,720,340H351.42C391.54,357,420,399,420,448Z" class="cls-4"></path><path d="M416,640s-28,73.7-61.52,106.85c0,0-49.88,55.29-143.76,59.08a54.19,54.19,0,0,1-33.6-9.77C161.92,785.35,147.86,763.43,165,720c0,0,31.43-60.26,43-80Z" class="cls-6"></path><path d="M208.47,810a58.24,58.24,0,0,1-33.67-10.55c-16.19-11.51-31.68-34.9-13.52-80.89.05-.13.11-.26.17-.38.32-.6,31.62-60.57,43.1-80.17a4,4,0,0,1,3.45-2H416a4,4,0,0,1,3.74,5.42c-1.16,3-28.7,74.79-62.37,108.2-1.22,1.33-13.82,14.79-37.53,28.79-22.48,13.28-59.63,29.52-109,31.51C210.08,810,209.27,810,208.47,810Zm-39.83-88.31c-12.77,32.5-9,57.13,10.8,71.24a50.29,50.29,0,0,0,31.12,9c47.51-1.92,83.28-17.5,104.92-30.24,23.5-13.83,35.91-27.39,36-27.52l.15-.16c27.27-27,51.28-82.49,58.44-100H210.3C198.46,664.59,170.53,718.06,168.64,721.66ZM416,644h0Z" class="cls-4"></path><path d="M416,640a512,512,0,0,1-30.46,64H832a16,16,0,0,0,16-16V640Z" class="cls-3"></path><path d="M832,708H385.54a4,4,0,0,1-3.47-6,511.34,511.34,0,0,0,30.19-63.43A4,4,0,0,1,416,636H848a4,4,0,0,1,4,4v48A20,20,0,0,1,832,708Zm-439.62-8H832a12,12,0,0,0,12-12V644H418.73A535.42,535.42,0,0,1,392.38,700Z" class="cls-4"></path><circle r="32" cy="480" cx="512" class="cls-5"></circle><path d="M512,516a36,36,0,1,1,36-36A36,36,0,0,1,512,516Zm0-64a28,28,0,1,0,28,28A28,28,0,0,0,512,452Z" class="cls-4"></path><circle r="32" cy="480" cx="640" class="cls-7"></circle><path d="M640,516a36,36,0,1,1,36-36A36,36,0,0,1,640,516Zm0-64a28,28,0,1,0,28,28A28,28,0,0,0,640,452Z" class="cls-4"></path><path d="M208,720a63.78,63.78,0,0,0-44.56,18.08c-5.74,24.42-.34,43.2,16,54.82a50.29,50.29,0,0,0,31.12,9,230.23,230.23,0,0,0,61-10.7A63.91,63.91,0,0,0,208,720Z" class="cls-7"></path><path d="M640,388H608a4,4,0,0,1,0-8h32a4,4,0,0,1,0,8Z" class="cls-4"></path><path d="M576,388H448a4,4,0,0,1,0-8H576a4,4,0,0,1,0,8Z" class="cls-4"></path></g></g></g></svg>